<?xml version="1.0" encoding="utf-8"?>
<!-- Generator: Adobe Illustrator 19.2.0, SVG Export Plug-In . SVG Version: 6.00 Build 0)  -->
<svg version="1.1" id="Layer_1" xmlns="http://www.w3.org/2000/svg" xmlns:xlink="http://www.w3.org/1999/xlink" x="0px" y="0px"
	 viewBox="0 0 283.46 283.46" enable-background="new 0 0 283.46 283.46" xml:space="preserve">
<g>
	<path fill="#FFFFFF" d="M28.503,227.136c4.541,6.029,8.626,10.792,12.824,14.962c4.041,4.077,8.646,8.051,14.896,12.838
		l27.618-27.609h-0.149l71.923-71.489c7.615-7.618,7.718-19.966,0.287-27.655l-0.254-0.211c-3.696-3.725-8.623-5.774-13.87-5.774
		c-5.228,0-10.16,2.049-13.888,5.774L84.49,171.126L28.503,227.136z"/>
	<path fill="#FFFFFF" d="M241.971,41.482C215.172,14.679,179.488-0.083,141.498-0.083c-37.679,0-73.111,14.528-99.856,40.929
		l-0.446,0.535C8.797,73.925-5.805,120.566,2.111,166.149l0.056,0.308l-0.084,0.13c2.582,14.621,7.336,28.567,14.129,41.471
		l0.524-0.474v0.021l95.534-95.156c7.833-7.872,18.256-12.211,29.368-12.211c11.104,0,21.534,4.338,29.363,12.218
		c7.827,7.795,12.155,18.199,12.161,29.308c0.012,10.882-4.119,21.118-11.65,28.891l0.003,0.003l-0.463,0.58l-95.859,95.835
		c12.842,6.83,26.656,11.632,41.083,14.252l0.399-0.057l82.137-82.314c31.508-31.505,31.487-82.795-0.054-114.325
		c-15.231-15.251-35.512-23.649-57.136-23.649c-21.464,0-41.643,8.291-56.864,23.344l-0.213,0.267l-44.459,44.2l0.316-2.191
		c3.172-21.988,13.126-41.917,28.801-57.629C88.567,49.71,114.3,39.109,141.661,39.109c27.464,0,53.251,10.673,72.635,30.048
		c18.984,18.99,29.631,44.262,29.966,71.176c0.329,26.523-9.362,51.757-27.322,71.161l0.233,0.118l-0.71,0.695l-71.296,71.235
		c36.18-0.864,70.093-15.086,95.81-40.172h-0.03l1.206-1.263C297.305,186.732,297.22,96.727,241.971,41.482z"/>
</g>
</svg>
