<svg class="logo js-spin" xmlns="http://www.w3.org/2000/svg" viewBox="0 0 342.958 342.958"><path d="M313.211 171.479c0 78.277-63.456 141.732-141.732 141.732-38.043 0-72.582-14.991-98.04-39.384h98.04c56.525 0 102.348-45.823 102.348-102.348S228.004 69.131 171.479 69.131c-23.729 0-45.564 8.083-62.921 21.636l62.921-.003c44.578 0 80.715 36.137 80.715 80.715s-36.137 80.715-80.715 80.715l-116.508-.002a141.25 141.25 0 0 1-19.076-39.385h135.584c22.825 0 41.328-18.503 41.328-41.328 0-22.825-18.503-41.328-41.328-41.328H35.875a141.164 141.164 0 0 1 19.098-39.384c25.589-36.872 68.223-61.02 116.506-61.02 78.277 0 141.732 63.455 141.732 141.732zm-141.732-19.693H31.115a142.907 142.907 0 0 0-1.368 19.692c0 6.685.488 13.254 1.384 19.692h140.348c10.876 0 19.693-8.817 19.693-19.693 0-10.874-8.817-19.691-19.693-19.691z"/></svg>